<svg enable-background="new 1050 313 400 115" height="115" viewBox="1050 313 400 115" width="400" xmlns="http://www.w3.org/2000/svg" xmlns:xlink="http://www.w3.org/1999/xlink"><linearGradient id="a" gradientTransform="matrix(296.8586 0 0 296.6199 -84459.8828 -44207.7813)" gradientUnits="userSpaceOnUse" x1="285.6431" x2="285.6431" y1="149.3994" y2="143.8045"><stop offset="0" stop-color="#1a1a1a" stop-opacity=".1"/><stop offset=".123" stop-color="#212121" stop-opacity=".151"/><stop offset=".308" stop-color="#353535" stop-opacity=".227"/><stop offset=".532" stop-color="#575757" stop-opacity=".318"/><stop offset=".783" stop-color="#858585" stop-opacity=".421"/><stop offset="1" stop-color="#b3b3b3" stop-opacity=".51"/></linearGradient><g transform="scale(4.00216 4.0011)"><path d="m362.304 104.055c0 1.588-1.287 2.875-2.875 2.875-.001 0-.002 0-.003 0h-94.186c-1.589.002-2.88-1.285-2.882-2.875v-22.928c.002-1.59 1.292-2.878 2.882-2.879h94.185c1.589 0 2.878 1.288 2.878 2.878v.001z" fill="#fff"/><path d="m362.304 104.055c0 1.588-1.287 2.875-2.875 2.875-.001 0-.002 0-.003 0h-94.186c-1.589.002-2.88-1.285-2.882-2.875v-22.928c.002-1.59 1.292-2.878 2.882-2.879h94.185c1.589 0 2.878 1.288 2.878 2.878v.001z"/><path d="m284.307 92.432c-.022-2.419 1.981-3.596 2.073-3.651-1.134-1.654-2.892-1.88-3.51-1.898-1.477-.155-2.909.884-3.661.884-.767 0-1.925-.869-3.174-.843-1.606.025-3.109.955-3.934 2.399-1.701 2.945-.432 7.273 1.197 9.653.815 1.166 1.768 2.468 3.015 2.422 1.22-.05 1.675-.777 3.147-.777 1.459 0 1.886.777 3.158.748 1.309-.021 2.133-1.171 2.92-2.348.942-1.335 1.32-2.652 1.335-2.72-.029-.011-2.541-.971-2.566-3.869zm-2.403-7.115c.656-.821 1.105-1.937.98-3.07-.95.042-2.137.657-2.821 1.459-.605.707-1.146 1.866-1.006 2.956 1.067.08 2.163-.538 2.847-1.345z" fill="#fff"/><path d="m359.669 78.553-50.449-.324 19.517 28.722h30.689c1.633-.001 2.859-1.48 2.861-2.938l-.202-22.601c-.003-1.919-.457-2.857-2.416-2.859z" fill="url(#a)"/><g fill="#fff"><path d="m301.975 101.229h-1.705l-.934-2.934h-3.246l-.89 2.934h-1.66l3.217-9.99h1.986zm-2.92-4.165-.845-2.608c-.089-.267-.258-.894-.504-1.882h-.03c-.099.425-.257 1.052-.474 1.882l-.83 2.608zm11.176.475c0 1.225-.333 2.193-.998 2.904-.596.633-1.337.949-2.22.949-.954 0-1.64-.34-2.057-1.022v3.78h-1.6v-7.757c0-.769-.02-1.558-.059-2.368h1.408l.089 1.142h.03c.534-.86 1.344-1.29 2.431-1.29.85 0 1.559.336 2.127 1.008.565.673.849 1.557.849 2.654zm-1.631.059c0-.701-.158-1.279-.474-1.735-.346-.474-.811-.711-1.393-.711-.395 0-.754.132-1.074.392-.321.263-.531.606-.63 1.031-.044.159-.069.322-.074.487v1.202c0 .523.161.965.482 1.327.321.36.739.541 1.252.541.603 0 1.072-.234 1.408-.697.335-.464.503-1.076.503-1.837zm9.916-.059c0 1.225-.332 2.193-.998 2.904-.597.633-1.337.949-2.221.949-.954 0-1.64-.34-2.057-1.022v3.78h-1.6v-7.757c0-.769-.02-1.558-.059-2.368h1.408l.089 1.142h.03c.533-.86 1.343-1.29 2.431-1.29.849 0 1.559.336 2.128 1.008.564.673.849 1.557.849 2.654zm-1.631.059c0-.701-.158-1.279-.475-1.735-.346-.474-.809-.711-1.392-.711-.395 0-.754.132-1.076.392-.321.263-.531.606-.629 1.031-.049.198-.075.36-.075.487v1.202c0 .523.162.965.481 1.327.321.36.739.541 1.253.541.603 0 1.073-.234 1.407-.697.338-.464.506-1.076.506-1.837zm10.894.829c0 .851-.297 1.542-.888 2.076-.65.583-1.558.875-2.721.875-1.075 0-1.937-.207-2.587-.622l.37-1.334c.702.416 1.473.623 2.312.623.604 0 1.073-.137 1.408-.408.336-.272.505-.635.505-1.089 0-.406-.141-.746-.416-1.023-.277-.276-.735-.534-1.378-.77-1.749-.652-2.625-1.606-2.625-2.862 0-.82.309-1.491.926-2.016.617-.524 1.435-.786 2.453-.786.909 0 1.666.158 2.268.474l-.402 1.305c-.566-.306-1.205-.459-1.919-.459-.565 0-1.008.139-1.324.415-.266.247-.401.548-.401.905 0 .394.154.721.46.978.265.237.751.494 1.452.77.86.347 1.492.751 1.897 1.215.408.464.61 1.043.61 1.733zm5.306-3.2h-1.764v3.497c0 .89.311 1.333.934 1.333.286 0 .523-.024.711-.074l.044 1.215c-.315.118-.73.177-1.244.177-.632 0-1.126-.193-1.483-.579-.355-.386-.534-1.032-.534-1.942v-3.631h-1.051v-1.201h1.051v-1.319l1.572-.474v1.793h1.764zm7.943 2.341c0 1.107-.317 2.016-.949 2.727-.661.732-1.541 1.097-2.638 1.097-1.059 0-1.9-.35-2.527-1.051-.628-.702-.941-1.586-.941-2.653 0-1.116.324-2.031.971-2.741.648-.712 1.52-1.068 2.617-1.068 1.057 0 1.906.351 2.549 1.052.613.681.918 1.559.918 2.637zm-1.659.037c0-.66-.143-1.226-.428-1.699-.336-.572-.816-.858-1.438-.858-.641 0-1.133.286-1.467.858-.287.474-.429 1.05-.429 1.73 0 .661.143 1.228.429 1.7.346.572.829.858 1.454.858.612 0 1.091-.292 1.438-.872.293-.486.441-1.056.441-1.717zm6.863-2.172c-.167-.03-.335-.045-.505-.044-.563 0-.998.212-1.304.638-.266.375-.399.85-.399 1.422v3.779h-1.6v-4.935c.001-.756-.014-1.512-.047-2.268h1.394l.059 1.378h.044c.17-.474.435-.856.8-1.142.334-.25.74-.385 1.157-.386.148 0 .281.011.4.03zm7.158 1.854c.004.243-.016.487-.059.726h-4.801c.018.712.251 1.257.697 1.632.405.335.928.503 1.57.503.711 0 1.359-.113 1.943-.34l.251 1.11c-.682.297-1.486.445-2.415.445-1.117 0-1.994-.329-2.632-.985-.637-.657-.956-1.54-.956-2.645 0-1.086.296-1.99.89-2.712.622-.77 1.462-1.155 2.519-1.155 1.038 0 1.824.385 2.358 1.155.423.611.635 1.367.635 2.266zm-1.526-.415c.011-.475-.094-.884-.311-1.23-.277-.446-.703-.668-1.275-.668-.523 0-.95.217-1.274.652-.266.346-.425.762-.474 1.245z"/><path d="m295.629 87.708c-.445 0-.83-.022-1.151-.059v-4.83c.448-.069.901-.103 1.355-.102 1.835 0 2.681.903 2.681 2.375 0 1.698-.999 2.616-2.885 2.616zm.269-4.372c-.248 0-.459.015-.634.051v3.672c.094.015.276.022.531.022 1.203 0 1.887-.685 1.887-1.967.001-1.143-.619-1.778-1.784-1.778zm5.25 4.408c-1.034 0-1.705-.772-1.705-1.821 0-1.093.684-1.872 1.763-1.872 1.019 0 1.705.736 1.705 1.814 0 1.107-.706 1.879-1.763 1.879zm.03-3.118c-.568 0-.932.532-.932 1.275 0 .729.372 1.26.925 1.26s.925-.568.925-1.275c-.001-.721-.365-1.26-.918-1.26zm7.632-.502-1.107 3.54h-.721l-.459-1.537c-.114-.376-.209-.758-.285-1.143h-.015c-.058.386-.167.772-.284 1.143l-.488 1.537h-.729l-1.042-3.54h.809l.401 1.683c.094.401.174.779.24 1.137h.015c.058-.298.152-.67.291-1.129l.503-1.69h.641l.481 1.654c.116.401.211.794.284 1.166h.021c.051-.364.131-.751.24-1.166l.43-1.654zm4.076 3.54h-.787v-2.033c0-.626-.24-.94-.714-.94-.466 0-.787.401-.787.867v2.106h-.787v-2.528c0-.313-.008-.649-.029-1.013h.692l.037.546h.022c.212-.378.641-.619 1.122-.619.743 0 1.231.568 1.231 1.493zm2.169 0h-.787v-5.165h.787zm2.869.08c-1.034 0-1.705-.772-1.705-1.821 0-1.093.684-1.872 1.762-1.872 1.02 0 1.705.736 1.705 1.814.001 1.107-.706 1.879-1.762 1.879zm.029-3.118c-.568 0-.932.532-.932 1.275 0 .729.372 1.26.924 1.26.554 0 .925-.568.925-1.275 0-.721-.363-1.26-.917-1.26zm4.835 3.038-.057-.408h-.021c-.24.328-.591.488-1.035.488-.634 0-1.085-.444-1.085-1.042 0-.874.757-1.326 2.069-1.326v-.065c0-.466-.247-.7-.735-.7-.349 0-.655.088-.925.263l-.16-.517c.327-.204.736-.306 1.215-.306.925 0 1.392.488 1.392 1.465v1.304c0 .357.016.634.051.845zm-.108-1.763c-.874 0-1.312.212-1.312.714 0 .372.226.553.54.553.4 0 .773-.306.773-.721zm4.587 1.763-.037-.568h-.022c-.226.429-.606.649-1.137.649-.853 0-1.486-.751-1.486-1.807 0-1.107.656-1.887 1.55-1.887.474 0 .809.16.998.481h.016v-2.032h.787v4.211c0 .342.008.663.029.954zm-.117-2.083c0-.495-.328-.918-.829-.918-.583 0-.94.517-.94 1.246 0 .714.37 1.203.924 1.203.495 0 .845-.43.845-.94zm5.781 2.163c-1.034 0-1.704-.772-1.704-1.821 0-1.093.685-1.872 1.763-1.872 1.02 0 1.705.736 1.705 1.814 0 1.107-.707 1.879-1.764 1.879zm.029-3.118c-.568 0-.932.532-.932 1.275 0 .729.371 1.26.924 1.26.554 0 .925-.568.925-1.275.002-.721-.363-1.26-.917-1.26zm5.965 3.038h-.787v-2.033c0-.626-.24-.94-.714-.94-.466 0-.786.401-.786.867v2.106h-.787v-2.528c0-.313-.007-.649-.029-1.013h.692l.037.546h.022c.211-.378.641-.619 1.121-.619.743 0 1.232.568 1.232 1.493zm5.293-2.95h-.866v1.719c0 .438.152.656.458.656.139 0 .255-.015.349-.037l.022.597c-.152.058-.357.088-.61.088-.62 0-.991-.342-.991-1.239v-1.785h-.517v-.59h.517v-.649l.772-.233v.881h.866zm4.164 2.95h-.786v-2.018c0-.633-.239-.954-.714-.954-.408 0-.787.277-.787.838v2.134h-.786v-5.165h.786v2.127h.016c.247-.386.606-.576 1.064-.576.749 0 1.207.582 1.207 1.508zm4.267-1.581h-2.361c.015.67.458 1.049 1.115 1.049.349 0 .67-.059.954-.167l.122.546c-.335.145-.729.218-1.188.218-1.107 0-1.762-.7-1.762-1.784 0-1.085.671-1.901 1.674-1.901.905 0 1.472.67 1.472 1.683.006.119-.003.239-.026.356zm-.721-.561c0-.546-.275-.932-.778-.932-.452 0-.809.393-.86.932z"/></g></g></svg>