<?xml version="1.0" encoding="utf-8"?>
<!-- Generator: Adobe Illustrator 16.0.0, SVG Export Plug-In . SVG Version: 6.00 Build 0)  -->
<!DOCTYPE svg PUBLIC "-//W3C//DTD SVG 1.1//EN" "http://www.w3.org/Graphics/SVG/1.1/DTD/svg11.dtd">
<svg version="1.1" id="Layer_1" xmlns="http://www.w3.org/2000/svg" xmlns:xlink="http://www.w3.org/1999/xlink" x="0px" y="0px"
	 width="400px" height="115px" viewBox="1050 313 400 115" enable-background="new 1050 313 400 115" xml:space="preserve">
<g transform="scale(4.00216 4.0011)">
	<path fill="#FFFFFF" d="M362.304,104.055c0,1.588-1.287,2.875-2.875,2.875c-0.001,0-0.002,0-0.003,0H265.24
		c-1.589,0.002-2.88-1.285-2.882-2.875V81.127c0.002-1.59,1.292-2.878,2.882-2.879h94.185c1.589,0,2.878,1.288,2.878,2.878
		c0,0,0,0,0,0.001L362.304,104.055L362.304,104.055z"/>
	<path d="M362.304,104.055c0,1.588-1.287,2.875-2.875,2.875c-0.001,0-0.002,0-0.003,0H265.24c-1.589,0.002-2.88-1.285-2.882-2.875
		V81.127c0.002-1.59,1.292-2.878,2.882-2.879h94.185c1.589,0,2.878,1.288,2.878,2.878c0,0,0,0,0,0.001L362.304,104.055
		L362.304,104.055z"/>
	<path fill="#FFFFFF" d="M284.307,92.432c-0.022-2.419,1.981-3.596,2.073-3.651c-1.134-1.654-2.892-1.88-3.51-1.898
		c-1.477-0.155-2.909,0.884-3.661,0.884c-0.767,0-1.925-0.869-3.174-0.843c-1.606,0.025-3.109,0.955-3.934,2.399
		c-1.701,2.945-0.432,7.273,1.197,9.653c0.815,1.166,1.768,2.468,3.015,2.422c1.22-0.05,1.675-0.777,3.147-0.777
		c1.459,0,1.886,0.777,3.158,0.748c1.309-0.021,2.133-1.171,2.92-2.348c0.942-1.335,1.32-2.652,1.335-2.72
		C286.844,96.29,284.332,95.33,284.307,92.432L284.307,92.432z M281.904,85.317c0.656-0.821,1.105-1.937,0.98-3.07
		c-0.95,0.042-2.137,0.657-2.821,1.459c-0.605,0.707-1.146,1.866-1.006,2.956C280.124,86.742,281.22,86.124,281.904,85.317
		L281.904,85.317z"/>
	
		<linearGradient id="SVGID_1_" gradientUnits="userSpaceOnUse" x1="285.6431" y1="149.3994" x2="285.6431" y2="143.8045" gradientTransform="matrix(296.8586 0 0 296.6199 -84459.8828 -44207.7813)">
		<stop  offset="0" style="stop-color:#1A1A1A;stop-opacity:0.1"/>
		<stop  offset="0.123" style="stop-color:#212121;stop-opacity:0.151"/>
		<stop  offset="0.308" style="stop-color:#353535;stop-opacity:0.227"/>
		<stop  offset="0.532" style="stop-color:#575757;stop-opacity:0.318"/>
		<stop  offset="0.783" style="stop-color:#858585;stop-opacity:0.421"/>
		<stop  offset="1" style="stop-color:#B3B3B3;stop-opacity:0.51"/>
	</linearGradient>
	<path fill="url(#SVGID_1_)" d="M359.669,78.553l-50.449-0.324l19.517,28.722h30.689c1.633-0.001,2.859-1.48,2.861-2.938
		l-0.202-22.601C362.082,79.493,361.628,78.555,359.669,78.553z"/>
	<g>
		<path fill="#FFFFFF" d="M301.975,101.229h-1.705l-0.934-2.934h-3.246l-0.89,2.934h-1.66l3.217-9.99h1.986L301.975,101.229z
			 M299.055,97.064l-0.845-2.608c-0.089-0.267-0.258-0.894-0.504-1.882h-0.03c-0.099,0.425-0.257,1.052-0.474,1.882l-0.83,2.608
			H299.055L299.055,97.064z M310.231,97.539c0,1.225-0.333,2.193-0.998,2.904c-0.596,0.633-1.337,0.949-2.22,0.949
			c-0.954,0-1.64-0.34-2.057-1.022v3.78h-1.6v-7.757c0-0.769-0.02-1.558-0.059-2.368h1.408l0.089,1.142h0.03
			c0.534-0.86,1.344-1.29,2.431-1.29c0.85,0,1.559,0.336,2.127,1.008C309.947,95.558,310.231,96.442,310.231,97.539L310.231,97.539z
			 M308.6,97.598c0-0.701-0.158-1.279-0.474-1.735c-0.346-0.474-0.811-0.711-1.393-0.711c-0.395,0-0.754,0.132-1.074,0.392
			c-0.321,0.263-0.531,0.606-0.63,1.031c-0.044,0.159-0.069,0.322-0.074,0.487v1.202c0,0.523,0.161,0.965,0.482,1.327
			c0.321,0.36,0.739,0.541,1.252,0.541c0.603,0,1.072-0.234,1.408-0.697C308.432,98.971,308.6,98.359,308.6,97.598z M318.516,97.539
			c0,1.225-0.332,2.193-0.998,2.904c-0.597,0.633-1.337,0.949-2.221,0.949c-0.954,0-1.64-0.34-2.057-1.022v3.78h-1.6v-7.757
			c0-0.769-0.02-1.558-0.059-2.368h1.408l0.089,1.142h0.03c0.533-0.86,1.343-1.29,2.431-1.29c0.849,0,1.559,0.336,2.128,1.008
			C318.231,95.558,318.516,96.442,318.516,97.539L318.516,97.539z M316.885,97.598c0-0.701-0.158-1.279-0.475-1.735
			c-0.346-0.474-0.809-0.711-1.392-0.711c-0.395,0-0.754,0.132-1.076,0.392c-0.321,0.263-0.531,0.606-0.629,1.031
			c-0.049,0.198-0.075,0.36-0.075,0.487v1.202c0,0.523,0.162,0.965,0.481,1.327c0.321,0.36,0.739,0.541,1.253,0.541
			c0.603,0,1.073-0.234,1.407-0.697C316.717,98.971,316.885,98.359,316.885,97.598z M327.779,98.427
			c0,0.851-0.297,1.542-0.888,2.076c-0.65,0.583-1.558,0.875-2.721,0.875c-1.075,0-1.937-0.207-2.587-0.622l0.37-1.334
			c0.702,0.416,1.473,0.623,2.312,0.623c0.604,0,1.073-0.137,1.408-0.408c0.336-0.272,0.505-0.635,0.505-1.089
			c0-0.406-0.141-0.746-0.416-1.023c-0.277-0.276-0.735-0.534-1.378-0.77c-1.749-0.652-2.625-1.606-2.625-2.862
			c0-0.82,0.309-1.491,0.926-2.016c0.617-0.524,1.435-0.786,2.453-0.786c0.909,0,1.666,0.158,2.268,0.474l-0.402,1.305
			c-0.566-0.306-1.205-0.459-1.919-0.459c-0.565,0-1.008,0.139-1.324,0.415c-0.266,0.247-0.401,0.548-0.401,0.905
			c0,0.394,0.154,0.721,0.46,0.978c0.265,0.237,0.751,0.494,1.452,0.77c0.86,0.347,1.492,0.751,1.897,1.215
			C327.577,97.158,327.779,97.737,327.779,98.427L327.779,98.427z M333.085,95.227h-1.764v3.497c0,0.89,0.311,1.333,0.934,1.333
			c0.286,0,0.523-0.024,0.711-0.074l0.044,1.215c-0.315,0.118-0.73,0.177-1.244,0.177c-0.632,0-1.126-0.193-1.483-0.579
			c-0.355-0.386-0.534-1.032-0.534-1.942v-3.631h-1.051v-1.201h1.051v-1.319l1.572-0.474v1.793h1.764L333.085,95.227L333.085,95.227
			z M341.028,97.568c0,1.107-0.317,2.016-0.949,2.727c-0.661,0.732-1.541,1.097-2.638,1.097c-1.059,0-1.9-0.35-2.527-1.051
			c-0.628-0.702-0.941-1.586-0.941-2.653c0-1.116,0.324-2.031,0.971-2.741c0.648-0.712,1.52-1.068,2.617-1.068
			c1.057,0,1.906,0.351,2.549,1.052C340.723,95.612,341.028,96.49,341.028,97.568L341.028,97.568z M339.369,97.605
			c0-0.66-0.143-1.226-0.428-1.699c-0.336-0.572-0.816-0.858-1.438-0.858c-0.641,0-1.133,0.286-1.467,0.858
			c-0.287,0.474-0.429,1.05-0.429,1.73c0,0.661,0.143,1.228,0.429,1.7c0.346,0.572,0.829,0.858,1.454,0.858
			c0.612,0,1.091-0.292,1.438-0.872C339.221,98.836,339.369,98.266,339.369,97.605L339.369,97.605z M346.232,95.433
			c-0.167-0.03-0.335-0.045-0.505-0.044c-0.563,0-0.998,0.212-1.304,0.638c-0.266,0.375-0.399,0.85-0.399,1.422v3.779h-1.6v-4.935
			c0.001-0.756-0.014-1.512-0.047-2.268h1.394l0.059,1.378h0.044c0.17-0.474,0.435-0.856,0.8-1.142
			c0.334-0.25,0.74-0.385,1.157-0.386c0.148,0,0.281,0.011,0.4,0.03L346.232,95.433z M353.39,97.287
			c0.004,0.243-0.016,0.487-0.059,0.726h-4.801c0.018,0.712,0.251,1.257,0.697,1.632c0.405,0.335,0.928,0.503,1.57,0.503
			c0.711,0,1.359-0.113,1.943-0.34l0.251,1.11c-0.682,0.297-1.486,0.445-2.415,0.445c-1.117,0-1.994-0.329-2.632-0.985
			c-0.637-0.657-0.956-1.54-0.956-2.645c0-1.086,0.296-1.99,0.89-2.712c0.622-0.77,1.462-1.155,2.519-1.155
			c1.038,0,1.824,0.385,2.358,1.155C353.178,95.632,353.39,96.388,353.39,97.287L353.39,97.287z M351.864,96.872
			c0.011-0.475-0.094-0.884-0.311-1.23c-0.277-0.446-0.703-0.668-1.275-0.668c-0.523,0-0.95,0.217-1.274,0.652
			c-0.266,0.346-0.425,0.762-0.474,1.245L351.864,96.872L351.864,96.872z"/>
	</g>
	<g>
		<path fill="#FFFFFF" d="M295.629,87.708c-0.445,0-0.83-0.022-1.151-0.059v-4.83c0.448-0.069,0.901-0.103,1.355-0.102
			c1.835,0,2.681,0.903,2.681,2.375C298.514,86.79,297.515,87.708,295.629,87.708z M295.898,83.336
			c-0.248,0-0.459,0.015-0.634,0.051v3.672c0.094,0.015,0.276,0.022,0.531,0.022c1.203,0,1.887-0.685,1.887-1.967
			C297.683,83.971,297.063,83.336,295.898,83.336z M301.148,87.744c-1.034,0-1.705-0.772-1.705-1.821
			c0-1.093,0.684-1.872,1.763-1.872c1.019,0,1.705,0.736,1.705,1.814C302.911,86.972,302.205,87.744,301.148,87.744z
			 M301.178,84.626c-0.568,0-0.932,0.532-0.932,1.275c0,0.729,0.372,1.26,0.925,1.26c0.553,0,0.925-0.568,0.925-1.275
			C302.095,85.165,301.731,84.626,301.178,84.626L301.178,84.626z M308.81,84.124l-1.107,3.54h-0.721l-0.459-1.537
			c-0.114-0.376-0.209-0.758-0.285-1.143h-0.015c-0.058,0.386-0.167,0.772-0.284,1.143l-0.488,1.537h-0.729l-1.042-3.54h0.809
			l0.401,1.683c0.094,0.401,0.174,0.779,0.24,1.137h0.015c0.058-0.298,0.152-0.67,0.291-1.129l0.503-1.69h0.641l0.481,1.654
			c0.116,0.401,0.211,0.794,0.284,1.166h0.021c0.051-0.364,0.131-0.751,0.24-1.166l0.43-1.654L308.81,84.124L308.81,84.124z
			 M312.886,87.664h-0.787v-2.033c0-0.626-0.24-0.94-0.714-0.94c-0.466,0-0.787,0.401-0.787,0.867v2.106h-0.787v-2.528
			c0-0.313-0.008-0.649-0.029-1.013h0.692l0.037,0.546h0.022c0.212-0.378,0.641-0.619,1.122-0.619c0.743,0,1.231,0.568,1.231,1.493
			L312.886,87.664L312.886,87.664z M315.055,87.664h-0.787v-5.165h0.787V87.664z M317.924,87.744c-1.034,0-1.705-0.772-1.705-1.821
			c0-1.093,0.684-1.872,1.762-1.872c1.02,0,1.705,0.736,1.705,1.814C319.687,86.972,318.98,87.744,317.924,87.744z M317.953,84.626
			c-0.568,0-0.932,0.532-0.932,1.275c0,0.729,0.372,1.26,0.924,1.26c0.554,0,0.925-0.568,0.925-1.275
			C318.87,85.165,318.507,84.626,317.953,84.626L317.953,84.626z M322.788,87.664l-0.057-0.408h-0.021
			c-0.24,0.328-0.591,0.488-1.035,0.488c-0.634,0-1.085-0.444-1.085-1.042c0-0.874,0.757-1.326,2.069-1.326v-0.065
			c0-0.466-0.247-0.7-0.735-0.7c-0.349,0-0.655,0.088-0.925,0.263l-0.16-0.517c0.327-0.204,0.736-0.306,1.215-0.306
			c0.925,0,1.392,0.488,1.392,1.465v1.304c0,0.357,0.016,0.634,0.051,0.845L322.788,87.664L322.788,87.664z M322.68,85.901
			c-0.874,0-1.312,0.212-1.312,0.714c0,0.372,0.226,0.553,0.54,0.553c0.4,0,0.773-0.306,0.773-0.721L322.68,85.901L322.68,85.901z
			 M327.267,87.664l-0.037-0.568h-0.022c-0.226,0.429-0.606,0.649-1.137,0.649c-0.853,0-1.486-0.751-1.486-1.807
			c0-1.107,0.656-1.887,1.55-1.887c0.474,0,0.809,0.16,0.998,0.481h0.016v-2.032h0.787v4.211c0,0.342,0.008,0.663,0.029,0.954
			L327.267,87.664L327.267,87.664z M327.15,85.581c0-0.495-0.328-0.918-0.829-0.918c-0.583,0-0.94,0.517-0.94,1.246
			c0,0.714,0.37,1.203,0.924,1.203c0.495,0,0.845-0.43,0.845-0.94V85.581L327.15,85.581z M332.931,87.744
			c-1.034,0-1.704-0.772-1.704-1.821c0-1.093,0.685-1.872,1.763-1.872c1.02,0,1.705,0.736,1.705,1.814
			C334.695,86.972,333.988,87.744,332.931,87.744L332.931,87.744z M332.96,84.626c-0.568,0-0.932,0.532-0.932,1.275
			c0,0.729,0.371,1.26,0.924,1.26c0.554,0,0.925-0.568,0.925-1.275C333.879,85.165,333.514,84.626,332.96,84.626L332.96,84.626z
			 M338.925,87.664h-0.787v-2.033c0-0.626-0.24-0.94-0.714-0.94c-0.466,0-0.786,0.401-0.786,0.867v2.106h-0.787v-2.528
			c0-0.313-0.007-0.649-0.029-1.013h0.692l0.037,0.546h0.022c0.211-0.378,0.641-0.619,1.121-0.619c0.743,0,1.232,0.568,1.232,1.493
			L338.925,87.664L338.925,87.664z M344.218,84.714h-0.866v1.719c0,0.438,0.152,0.656,0.458,0.656c0.139,0,0.255-0.015,0.349-0.037
			l0.022,0.597c-0.152,0.058-0.357,0.088-0.61,0.088c-0.62,0-0.991-0.342-0.991-1.239v-1.785h-0.517v-0.59h0.517v-0.649l0.772-0.233
			v0.881h0.866L344.218,84.714L344.218,84.714z M348.382,87.664h-0.786v-2.018c0-0.633-0.239-0.954-0.714-0.954
			c-0.408,0-0.787,0.277-0.787,0.838v2.134h-0.786v-5.165h0.786v2.127h0.016c0.247-0.386,0.606-0.576,1.064-0.576
			c0.749,0,1.207,0.582,1.207,1.508V87.664L348.382,87.664z M352.649,86.083h-2.361c0.015,0.67,0.458,1.049,1.115,1.049
			c0.349,0,0.67-0.059,0.954-0.167l0.122,0.546c-0.335,0.145-0.729,0.218-1.188,0.218c-1.107,0-1.762-0.7-1.762-1.784
			c0-1.085,0.671-1.901,1.674-1.901c0.905,0,1.472,0.67,1.472,1.683C352.681,85.846,352.672,85.966,352.649,86.083z M351.928,85.522
			c0-0.546-0.275-0.932-0.778-0.932c-0.452,0-0.809,0.393-0.86,0.932H351.928z"/>
	</g>
</g>
</svg>
