<svg xmlns="http://www.w3.org/2000/svg" viewBox="0 0 521.37 434.38"><defs><style>.cls-1{fill:#f4f6fa;}.cls-2{fill:#6c63ff;}.cls-2,.cls-3{opacity:0.1;isolation:isolate;}.cls-4{fill:#dc2c5d;}</style></defs><title>Asset 1</title><g id="Layer_2" data-name="Layer 2"><g id="Layer_1-2" data-name="Layer 1"><ellipse class="cls-1" cx="370.56" cy="429.13" rx="53.27" ry="5.25"/><path class="cls-1" d="M228.27,6.16c23.46-8.72,52-1.22,76.41,9.71,76.6,34.36,132.4,99.59,176.74,166,16.06,24.06,31.3,49.19,37.34,76,12.29,54.67-19.76,111.27-74.27,131.1-18.54,6.75-38.9,9.52-59.29,11.07-36.27,2.74-73.82,1.65-109.8-8.52-25.65-7.27-49.92-19-73.2-31.89-65-36.11-124.38-83-167.12-140.27C16.33,194.33.47,166,0,137S18.44,78.91,49.52,74c12.85-2,26.44.09,39.7,2.27,19.52,3.21,39.31,6.59,58.61,5.19,19.94-1.46,45.87-9.25,49.5-28.28C201.18,32.72,204.84,14.87,228.27,6.16Z"/><ellipse class="cls-2" cx="144" cy="421.19" rx="17.74" ry="3"/><ellipse class="cls-2" cx="102.89" cy="399.73" rx="10" ry="1.69"/><ellipse class="cls-2" cx="452.57" cy="411.84" rx="12.08" ry="2.04"/><path class="cls-3" d="M326.14,215.76c.51,1.38.85,2.48.85,2.48"/><path class="cls-3" d="M368.6,298.69a20.94,20.94,0,0,0-2.93.61"/><path class="cls-3" d="M370.13,190.34a2,2,0,0,1,.33-.72"/><path class="cls-4" d="M324.93,208.78H289.12V173.47H325Zm-.27-53H289.75c0-55.12,52.38-51.89,52.38-86.76a34.74,34.74,0,0,0-34.92-34.59C288,34.46,272.29,51,272.29,69.59H237.55A69.48,69.48,0,0,1,306.91,0h.29c38.51,0,69.73,30.73,69.73,69.19,0,43.53-52.3,48.48-52.3,86.62Z"/><path class="cls-2" d="M146.3,198.4H137v-9.35h9.35Zm-.52-13.51h-9c0-14.14,13.44-13.32,13.44-22.28a8.92,8.92,0,0,0-9-8.88h.09a9,9,0,0,0-8.76,8.83h-8.78a17.56,17.56,0,0,1,35.12-.14c0,11-13.19,12.21-13.19,21.81Z"/><path class="cls-2" d="M216.41,262.28h-9.35v-9.35h9.35Zm-.35-14h-9c0-14.15,13.45-13.32,13.45-22.28a8.92,8.92,0,0,0-9-8.88h-.12a9,9,0,0,0-8.79,8.83h-9.22a18.09,18.09,0,0,1,36.18-.14C229.62,237.07,216.06,238.36,216.06,248.25Z"/><path class="cls-2" d="M259,149.58h-6.75v-6.76H259Zm-.27-9.87h-6.52c0-10.29,9.78-9.69,9.78-16.21a6.49,6.49,0,0,0-6.52-6.46h0a6.66,6.66,0,0,0-6.52,6.57h-6.53a13.05,13.05,0,0,1,26.1-.11C268.51,131.64,258.73,132.58,258.73,139.71Z"/><path class="cls-2" d="M373.26,158.92h-3.64v-3.63h3.64Zm.15-5.71h-3.69c0-6.31,6.42-5.48,5.52-10.14a3.58,3.58,0,0,0-3.55-2.84h-.09l-3.68,4.15h-3.48a7.16,7.16,0,0,1,14.32,0C378.78,148.77,373.41,149.3,373.41,153.21Z"/><path class="cls-2" d="M431.43,328.75h-3.64v-3.63h3.64Zm0-5.71h-3.58c0-5.65,5.37-5.32,5.37-8.89a3.56,3.56,0,0,0-3.58-3.54,3.65,3.65,0,0,0-3.58,3.6h-3.58a7.16,7.16,0,0,1,14.32,0c0,4.46-5.35,5-5.35,8.88Z"/></g></g></svg>